<svg id="Layer_1" data-name="Layer 1" xmlns="http://www.w3.org/2000/svg" viewBox="0 0 32 32"><title>debjit visuals</title><rect x="0.97" y="3.69" width="30.07" height="24.62" rx="3.23" ry="3.23" fill="#1a1a1a"/><path d="M15.57,10.7l3.87,7.45a5.84,5.84,0,0,0,.28-1.82A5.74,5.74,0,0,0,15.57,10.7Z" fill="#efb718"/><path d="M15.57,10.7l3.87,7.45a5.84,5.84,0,0,0,.28-1.82A5.74,5.74,0,0,0,15.57,10.7Z" fill="#efb718"/><path d="M27.3,10.4,21,22.26h-3.1l-.6-1.12-1-1.94L15.62,18l-2.36-4.44-.68-1.29H8.15v8.11h4.54a5.79,5.79,0,0,0,2.49-.51l1,1.85a6.46,6.46,0,0,1-2.61.52H5.94V10.4H14v0l1.24,2.39,2.15,4.14,1.37,2.65.65,1.26.05.09.25-.5.83-1.59h0L24.9,10.4Z" fill="#efb718"/></svg>