<svg id="Layer_1" data-name="Layer 1" xmlns="http://www.w3.org/2000/svg" viewBox="0 0 160 32"><title>debjit visuals</title><path d="M19.35.73h9a7,7,0,0,1,7.31,7,7,7,0,0,1-7.31,7h-9Zm8,11.84c3.42,0,5.63-1.9,5.63-4.81S30.78,3,27.36,3H22v9.62Z" fill="#efb718"/><path d="M38.2.73H51.84v2h-11v4H51.45v1.9H40.82v4.16h11v2H38.2Z" fill="#efb718"/><path d="M54.54.73H65c3.3,0,4.53,1.49,4.53,3.52a3.35,3.35,0,0,1-2.35,3.24C68.87,7.9,70.3,8.88,70.3,11c0,2.33-1.47,3.83-4.46,3.83H54.54Zm9.7,6c1.41,0,2.66-.35,2.66-2,0-1.45-.94-2-2.66-2H57.16V6.71ZM65,12.77c1.62,0,2.56-.57,2.56-2.09s-1.25-2-2.56-2H57.16v4Z" fill="#efb718"/><path d="M72.53,7.83h2.62c0,2.68,1,5,5.08,5s5.06-2.36,5.06-5V3H78.86V.73h9.05V7.83c0,4.52-2.09,7.27-7.68,7.27S72.53,12.36,72.53,7.83Z" fill="#efb718"/><path d="M90.71.73h2.62V14.8H90.71Z" fill="#efb718"/><path d="M95.66.73h16V3H105V14.8h-2.6V3h-6.7Z" fill="#efb718"/><path d="M29.91,17.07h1.34l7.5,13.41,7.52-13.41H47.6l-8,14.22H37.93Z" fill="#efb718"/><path d="M49.89,17.07h1.2V31.29h-1.2Z" fill="#efb718"/><path d="M53.89,26.49h1.24c0,3.12,2.29,4.15,7.38,4.15,4,0,6.3-.75,6.3-3.1,0-2.57-2.31-2.61-7.29-2.94-5.53-.4-7.09-1.36-7.09-4.13s2.43-3.77,7.36-3.77c5.15,0,7.62,1.58,7.64,5H68.23c0-3-2.45-3.93-6.75-3.93-4,0-5.8.69-5.8,2.74,0,2.41,1.88,2.78,6.16,3.08,5.49.4,8.21.59,8.21,3.95s-2.92,4.19-7.68,4.19C56.7,31.68,53.93,30.48,53.89,26.49Z" fill="#efb718"/><path d="M72.67,24.35V17.07h1.2v7.27c0,3.18,1.2,6.26,6.63,6.26s6.62-3.1,6.62-6.26V17.07h1.2v7.29c0,4-1.76,7.33-7.82,7.33S72.67,28.38,72.67,24.35Z" fill="#efb718"/><path d="M97.64,17.07H99.2l8.08,14.22h-1.34l-2.07-3.71H93l-2.07,3.71H89.54Zm5.67,9.52-4.9-8.75-4.9,8.75Z" fill="#efb718"/><path d="M109.69,17.07h1.2V30.22h11.29v1.07h-12.5Z" fill="#efb718"/><path d="M123.53,26.49h1.24c0,3.12,2.29,4.15,7.38,4.15,4,0,6.3-.75,6.3-3.1,0-2.57-2.31-2.61-7.29-2.94-5.53-.4-7.09-1.36-7.09-4.13s2.43-3.77,7.36-3.77c5.15,0,7.62,1.58,7.64,5h-1.22c0-3-2.45-3.93-6.75-3.93-4,0-5.8.69-5.8,2.74,0,2.41,1.88,2.78,6.16,3.08,5.49.4,8.21.59,8.21,3.95s-2.92,4.19-7.68,4.19C126.33,31.68,123.57,30.48,123.53,26.49Z" fill="#efb718"/></svg>